<?xml version="1.0" encoding="UTF-8" standalone="no"?>
<!-- Created with Inkscape (http://www.inkscape.org/) -->

<svg
   version="1.1"
   id="svg1"
   width="72"
   height="165"
   viewBox="0 0 72 165"
   sodipodi:docname="lobo_vectorizado.svg"
   inkscape:version="1.3 (0e150ed6c4, 2023-07-21)"
   xmlns:inkscape="http://www.inkscape.org/namespaces/inkscape"
   xmlns:sodipodi="http://sodipodi.sourceforge.net/DTD/sodipodi-0.dtd"
   xmlns:xlink="http://www.w3.org/1999/xlink"
   xmlns="http://www.w3.org/2000/svg"
   xmlns:svg="http://www.w3.org/2000/svg">
  <defs
     id="defs1">
    <inkscape:path-effect
       effect="bspline"
       id="path-effect2"
       is_visible="true"
       lpeversion="1.3"
       weight="33.333333"
       steps="2"
       helper_size="0"
       apply_no_weight="true"
       apply_with_weight="true"
       only_selected="false"
       uniform="false" />
  </defs>
  <sodipodi:namedview
     id="namedview1"
     pagecolor="#ffffff"
     bordercolor="#000000"
     borderopacity="0.25"
     inkscape:showpageshadow="2"
     inkscape:pageopacity="0.0"
     inkscape:pagecheckerboard="0"
     inkscape:deskcolor="#d1d1d1"
     inkscape:zoom="5.137005"
     inkscape:cx="59.081118"
     inkscape:cy="109.88893"
     inkscape:window-width="3840"
     inkscape:window-height="2120"
     inkscape:window-x="-12"
     inkscape:window-y="-12"
     inkscape:window-maximized="1"
     inkscape:current-layer="g1" />
  <g
     inkscape:groupmode="layer"
     inkscape:label="Image"
     id="g1">
    <g
       id="g3">
      <g
         id="g2"
         transform="matrix(1.9818622,0,0,2.2728903,-139.71952,-166.58391)">
        <image
           width="14.719861"
           height="15.814459"
           preserveAspectRatio="none"
           xlink:href="lobo.png"
           id="image1"
           x="81.303909"
           y="84.927368" />
        <path
           style="fill:#000000;stroke-width:0.0632286"
           d="m 91.860796,100.19089 c -0.121864,-0.0137 -0.420979,-0.0572 -0.664708,-0.0967 l -0.443134,-0.0718 -0.384065,-0.172626 -0.38407,-0.17263 -0.110174,-0.231623 -0.110175,-0.23162 -0.153414,-0.67728 c -0.08437,-0.37251 -0.172362,-0.89052 -0.195532,-1.15114 l -0.04212,-0.47386 -0.149018,-0.17851 -0.149015,-0.17852 v -0.2116 -0.2116 l 0.16348,-0.12829 c 0.08991,-0.0706 0.219428,-0.146 0.287802,-0.16764 l 0.12432,-0.0394 -0.131961,-0.20006 c -0.07259,-0.11003 -0.247909,-0.40703 -0.389625,-0.66 l -0.257666,-0.45993 -0.112827,0.0357 -0.112831,0.0357 -0.06692,-0.19152 -0.06692,-0.19152 h -0.06309 c -0.0347,0 -0.272428,0.0952 -0.528279,0.21148 l -0.465186,0.21148 -0.232249,0.20342 c -0.26897,0.23559 -0.45177,0.51176 -0.581479,0.87851 l -0.09181,0.25956 0.265569,-0.1041 c 0.146063,-0.0573 0.439567,-0.21271 0.652239,-0.34544 0.212669,-0.13273 0.409101,-0.24133 0.436516,-0.24133 h 0.04984 l -0.03452,0.61573 -0.03452,0.61574 -0.132328,0.3459 -0.13233,0.34589 -0.230479,0.33383 -0.230482,0.33384 -0.314015,0.20299 -0.31402,0.20298 0.04064,0.25402 c 0.02237,0.13971 0.07907,0.31261 0.126042,0.38422 l 0.0854,0.1302 0.249267,0.0745 0.249271,0.0745 0.112768,0.12431 0.112763,0.1243 -0.04012,0.159463 -0.04012,0.15946 -0.15811,0.0396 -0.158113,0.0396 -0.274794,-0.0411 -0.2748,-0.0411 -0.13582,-0.12623 c -0.0747,-0.0694 -0.193314,-0.238653 -0.263582,-0.376063 l -0.127768,-0.24984 -0.129188,-0.54264 -0.129188,-0.54264 0.0982,-0.13661 c 0.05402,-0.0751 0.140913,-0.195 0.193112,-0.26637 l 0.09492,-0.12977 0.03763,-0.3123 0.03763,-0.31229 -0.188389,0.31705 -0.18839,0.31705 -0.27978,0.25726 -0.279776,0.25727 -0.281163,0.10053 c -0.154638,0.0553 -0.383631,0.11702 -0.508872,0.13719 l -0.227712,0.0366 -0.07377,0.16152 c -0.04058,0.0888 -0.102775,0.29061 -0.138219,0.44838 l -0.06445,0.28686 0.03532,0.11102 0.03531,0.11103 0.275373,0.10491 0.275374,0.104913 0.107454,0.11845 0.107457,0.11845 -0.02058,0.175077 -0.02058,0.175079 -0.189917,0.054 -0.189913,0.054 -0.311653,-0.0377 c -0.171407,-0.0207 -0.360698,-0.0639 -0.420651,-0.0959 l -0.108999,-0.0582 -0.06997,-0.200207 -0.06996,-0.20022 0.0013,-0.637883 0.0017,-0.63788 0.05759,-0.24773 0.0576,-0.24773 0.195873,-0.15292 0.195869,-0.15292 0.136511,-0.26245 0.136513,-0.26245 0.02755,-0.77092 0.02755,-0.77092 -0.04204,-0.22356 -0.04204,-0.22357 -0.266208,0.14193 -0.26621,0.14193 H 82.998056 82.333351 L 81.999474,95.08495 81.665602,94.90042 81.38225,94.59823 c -0.15583,-0.16621 -0.283336,-0.33374 -0.283336,-0.3723 v -0.0701 l 0.127869,0.0405 0.127868,0.0405 -0.159521,-0.2345 c -0.08774,-0.12897 -0.159522,-0.27316 -0.159522,-0.32042 v -0.0859 h 0.05957 c 0.03276,0 0.07717,0.0284 0.09869,0.0632 0.02153,0.0347 0.06693,0.0631 0.100923,0.0631 h 0.06179 l -0.06347,-0.1183 c -0.0349,-0.0651 -0.09256,-0.24783 -0.128128,-0.40614 l -0.06466,-0.28783 0.04055,-0.20228 0.04056,-0.20227 0.09829,0.18214 0.09829,0.18213 0.04499,-0.29913 c 0.02475,-0.16452 0.09179,-0.43966 0.148978,-0.61142 l 0.10398,-0.3123 0.214701,-0.28051 c 0.118085,-0.15428 0.257389,-0.296845 0.309561,-0.316817 l 0.09486,-0.03631 -0.03691,0.521697 -0.0369,0.52171 0.07456,0.42714 c 0.04101,0.23492 0.134173,0.58607 0.20703,0.78032 l 0.132463,0.35319 0.249668,0.2702 0.249671,0.27021 0.267738,0.102 0.267739,0.102 0.306176,-0.0197 0.306172,-0.0197 0.0755,-0.25261 c 0.04152,-0.13893 0.148871,-0.39598 0.238553,-0.57122 l 0.163056,-0.31861 0.297734,-0.33035 0.297733,-0.33035 0.673177,-0.52965 c 0.752291,-0.5919 1.255522,-1.089659 1.64792,-1.630003 0.298303,-0.410652 0.263879,-0.396947 0.659541,-0.262457 l 0.295783,0.10054 0.320396,0.287364 0.320395,0.287368 0.153354,0.301899 0.153357,0.301899 0.06198,0.43114 c 0.03409,0.23714 0.09297,0.80059 0.130845,1.25213 l 0.06887,0.82097 0.162152,0.53679 c 0.08919,0.29524 0.201842,0.6135 0.250355,0.70726 l 0.0882,0.17046 0.219568,-0.0915 c 0.120768,-0.0503 0.291707,-0.0915 0.37987,-0.0915 h 0.160297 v -0.0495 c 0,-0.0272 0.08273,-0.0983 0.183858,-0.15788 l 0.183855,-0.10835 h 0.159917 0.159923 l 0.0202,-0.13141 0.0202,-0.13141 -0.687476,-0.69123 -0.68748,-0.69124 0.03674,-0.10884 c 0.0202,-0.0599 0.125981,-0.36348 0.235032,-0.67469 l 0.198272,-0.56584 0.04599,-0.41302 0.04598,-0.413019 0.03715,0.09473 c 0.02043,0.0521 0.111271,0.393119 0.201863,0.757829 l 0.164716,0.66309 0.223224,0.47364 c 0.122778,0.26051 0.311875,0.60449 0.420218,0.7644 l 0.196983,0.29076 0.248321,-0.0629 0.248318,-0.0629 0.327384,0.0743 0.327385,0.0743 0.289645,0.21145 0.289648,0.21144 0.17397,0.35472 c 0.09569,0.1951 0.181735,0.35472 0.191225,0.35472 0.0095,0 0.256657,0.0859 0.549265,0.19087 l 0.532011,0.19086 0.328288,0.22452 0.328287,0.22453 0.09902,0.15076 0.09902,0.15076 v 0.14131 0.1413 l -0.179811,0.19247 -0.179809,0.19246 -0.143586,0.66309 c -0.07893,0.36471 -0.208151,0.9127 -0.287057,1.21777 l -0.143474,0.55466 -0.114767,0.126513 -0.114768,0.12652 -0.28881,0.12813 c -0.158844,0.0705 -0.516709,0.183807 -0.795251,0.251877 l -0.506441,0.12374 -0.72801,0.0243 c -0.400402,0.0134 -0.827715,0.0131 -0.949576,-9.2e-4 z M 89.58503,90.017855 c -0.07292,-0.09248 -0.149732,-0.236307 -0.170694,-0.319618 l -0.03811,-0.151476 -0.117846,0.193311 c -0.128787,0.211261 -0.181925,0.232291 -0.296963,0.117535 l -0.07597,-0.07578 V 89.424319 89.06681 l -0.239947,0.06389 -0.239947,0.06389 -0.234841,-0.04395 -0.234841,-0.04395 0.0027,-0.04451 c 0.0013,-0.02448 0.147151,-0.155693 0.323709,-0.291592 l 0.321014,-0.247087 -0.165447,-0.08647 c -0.210656,-0.11011 -0.205628,-0.148732 0.03952,-0.303479 l 0.200098,-0.126303 0.262603,-0.322103 0.262603,-0.322103 0.03431,-0.377534 0.03432,-0.377535 0.163477,-0.344725 0.163474,-0.344727 0.229699,-0.267696 0.229695,-0.2677 0.1847,-0.09528 0.1847,-0.09528 0.04634,0.112721 0.04635,0.112725 -8.83e-4,0.516645 -8.82e-4,0.516645 0.216154,-0.21563 0.216149,-0.215626 0.281102,-0.13575 0.281096,-0.13575 0.279145,-0.0314 0.279141,-0.03137 v 0.04927 c 0,0.02709 -0.142434,0.270779 -0.316523,0.541511 -0.367302,0.571207 -0.364596,0.558472 -0.159574,0.750613 l 0.156951,0.147094 -0.109375,0.07978 -0.109375,0.07979 0.05186,0.05172 c 0.02852,0.02843 0.09969,0.05208 0.158163,0.05253 l 0.106317,7.33e-4 -0.01905,0.112627 -0.01905,0.112631 0.288135,0.127147 0.288133,0.127147 v 0.09464 0.09464 l -0.145609,0.145254 -0.14561,0.145258 -0.650994,0.147242 -0.650994,0.147247 -0.270463,0.171107 -0.270462,0.171105 -0.135734,0.27971 -0.135729,0.279711 v 0.295821 0.295822 h -0.122139 -0.122015 z"
           id="path1" />
      </g>
      <path
         style="fill:#ffffff;fill-rule:evenodd;stroke:#ffffff;stroke-width:0.472441;stroke-linecap:round;stroke-linejoin:round;paint-order:stroke fill markers"
         d="m 0,5.4506468 c 5.969756,0.194666 11.939512,0.3893319 15.346166,0.4866649 3.406655,0.097333 4.250207,0.097333 4.866649,0.2271101 0.616442,0.1297772 1.005774,0.3893319 1.849327,0.5191093 0.843552,0.1297774 2.141325,0.1297774 3.439099,0.097333 1.297773,-0.032444 2.595546,-0.097333 3.82843,-0.1297773 1.232884,-0.032444 2.40088,-0.032444 3.406654,-0.097333 1.005774,-0.064889 1.849327,-0.1946661 3.698653,-0.5191094 1.849327,-0.3244433 4.704428,-0.8435525 6.488866,-1.1031071 1.784438,-0.2595545 2.498213,-0.2595545 3.731098,-0.2595545 1.232884,0 2.984877,0 4.087984,0 1.103107,0 1.557328,0 1.94666,0 0.389332,0 0.713775,0 1.070663,-0.1297773 0.356887,-0.1297773 0.746219,-0.3893319 1.362662,-0.5191092 0.616442,-0.1297773 1.459994,-0.1297773 2.141325,-0.2271103 0.681331,-0.097333 1.20044,-0.2919989 1.524884,-0.3893319 0.324443,-0.097333 0.45422,-0.097333 0.713774,0 0.259555,0.097333 0.648887,0.2919989 1.005774,0.3893319 0.356888,0.097333 0.681331,0.097333 0.97333,0.1622216 0.291999,0.064889 0.551554,0.1946661 1.070663,0.2595547 0.519109,0.064889 1.297773,0.064889 1.719549,0.1297775 0.421777,0.064889 0.486665,0.1946656 0.713776,0.2919986 0.22711,0.097333 0.616442,0.1622217 1.103107,0.389332 0.486665,0.2271104 1.070662,0.616442 1.719549,0.8111081 0.648886,0.194666 1.362662,0.194666 2.072036,0.3244434 C 70.590053,6.2941994 71.295026,6.5537538 72,6.8133085"
         id="path2"
         inkscape:path-effect="#path-effect2"
         inkscape:original-d="m 0,5.4506468 c 5.969756,0.194666 11.939512,0.3893319 17.909268,0.5839979 0.843553,0 1.687105,0 2.530658,0 0.389331,0.2595546 0.778663,0.5191092 1.167995,0.7786638 1.297773,0 2.595546,0 3.893319,0 1.297774,-0.064889 2.595547,-0.1297773 3.89332,-0.1946659 1.167995,0 2.335991,0 3.503987,0 0.843552,-0.1297773 1.687105,-0.2595546 2.530657,-0.389332 2.855101,-0.5191092 5.710202,-1.0382184 8.565302,-1.5573276 0.713776,0 1.427551,0 2.141326,0 1.751994,0 3.503987,0 5.255981,0 0.45422,0 0.908441,0 1.362662,0 0.324443,0 0.648886,0 0.973329,0 0.389332,-0.2595546 0.778664,-0.5191092 1.167996,-0.7786638 0.843553,0 1.687105,0 2.530658,0 0.519109,-0.194666 1.038218,-0.389332 1.557327,-0.5839979 0.129778,0 0.259555,0 0.389332,0 0.389332,0.1946659 0.778664,0.3893319 1.167996,0.5839979 0.324443,0 0.648886,0 0.97333,0 0.259554,0.1297773 0.519109,0.2595546 0.778663,0.3893319 0.778664,0 1.557328,0 2.335992,0 0.06489,0.1297773 0.129777,0.2595546 0.194666,0.3893319 0.389332,0.064889 0.778664,0.1297773 1.167996,0.1946659 0.583998,0.389332 1.167995,0.7786639 1.751993,1.1679958 0.713775,0 1.427551,0 2.141326,0 C 70.590053,6.2941993 71.295026,6.5537539 72,6.8133085" />
      <text
         xml:space="preserve"
         style="font-size:7.71161px;font-family:'Californian FB';-inkscape-font-specification:'Californian FB, Normal';text-align:center;text-anchor:middle;fill:#0032ff;fill-opacity:1;fill-rule:evenodd;stroke:#ffffff;stroke-width:0.275414;stroke-linecap:round;stroke-linejoin:round;stroke-dasharray:none;paint-order:stroke fill markers"
         x="37.512882"
         y="63.437473"
         id="text1"
         transform="scale(0.92491364,1.081182)"><tspan
           sodipodi:role="line"
           id="tspan1"
           x="38.337513"
           y="63.437473"
           style="stroke-width:0.275414"><tspan
   style="stroke-width:0.275414;stroke-linejoin:round;paint-order:stroke fill markers"
   id="tspan2">Lobo Recoje huevos</tspan> </tspan></text>
    </g>
  </g>
</svg>
